<svg width="64" height="64" viewBox="0 0 64 64" fill="none" xmlns="http://www.w3.org/2000/svg">
  <!-- FUSTA Beer Logo - Based on provided design -->
  <!-- Background Shield -->
  <path d="M32 2L58 10v20c0 18-26 30-26 30S6 48 6 30V10L32 2z" fill="#2E7D32" stroke="#1B5E20" stroke-width="1.5"/>
  
  <!-- Beer Mug -->
  <rect x="20" y="14" width="16" height="20" rx="3" fill="#FF9800" stroke="#E65100" stroke-width="1.2"/>
  <!-- Beer Handle -->
  <path d="M36 18h3c2 0 4 2 4 4v6c0 2-2 4-4 4h-3" stroke="#E65100" stroke-width="2" fill="none"/>
  
  <!-- Beer Foam -->
  <ellipse cx="28" cy="14" rx="8" ry="4" fill="#FFF8E1"/>
  <circle cx="24" cy="12" r="2" fill="#FFF8E1"/>
  <circle cx="32" cy="11" r="1.5" fill="#FFF8E1"/>
  <circle cx="28" cy="10" r="1.8" fill="#FFF8E1"/>
  <circle cx="30" cy="13" r="1.2" fill="#FFF8E1"/>
  
  <!-- FUSTA Text Badge -->
  <rect x="12" y="36" width="40" height="10" rx="5" fill="#1B5E20"/>
  <text x="32" y="43" text-anchor="middle" fill="#FFF8E1" font-family="Arial, sans-serif" font-size="8" font-weight="bold">FUSTA</text>
  
  <!-- Bar Chart with Arrow -->
  <rect x="18" y="50" width="4" height="10" fill="#1E88E5"/>
  <rect x="24" y="47" width="4" height="13" fill="#1E88E5"/>
  <rect x="30" y="44" width="4" height="16" fill="#1E88E5"/>
  <rect x="36" y="48" width="4" height="12" fill="#1E88E5"/>
  
  <!-- Upward Arrow -->
  <path d="M42 54L46 50L50 54M46 50v10" stroke="#4CAF50" stroke-width="2.5" fill="none" stroke-linecap="round" stroke-linejoin="round"/>
</svg>